<svg width="200" height="200" viewBox="0 0 200 200" fill="none" xmlns="http://www.w3.org/2000/svg">
  <path d="M100 20C120 20 140 30 150 50C160 70 150 90 130 100C150 110 160 130 150 150C140 170 120 180 100 180C80 180 60 170 50 150C40 130 50 110 70 100C50 90 40 70 50 50C60 30 80 20 100 20Z" stroke="#F5F2EB" stroke-width="2" fill="none" opacity="0.7"/>
  <path d="M100 40C110 40 120 45 125 55C130 65 125 75 115 80C125 85 130 95 125 105C120 115 110 120 100 120C90 120 80 115 75 105C70 95 75 85 85 80C75 75 70 65 75 55C80 45 90 40 100 40Z" stroke="#D72638" stroke-width="1.5" fill="none" opacity="0.6"/>
  <circle cx="100" cy="100" r="8" stroke="#9C8C74" stroke-width="1" fill="none" opacity="0.5"/>
</svg>
